<svg xmlns="http://www.w3.org/2000/svg" viewBox="0 0 750 500"><g id="freepik--background-complete--inject-2"><path d="M71.91,315S63.4,316.15,68,334.8s8.6,28.27,8.6,28.27.61,4.22-2.79,4.06-10.3-3-12.68.68c-2.47,3.79-.37,8.39,4.92,13.22S82.59,396.9,83.59,397.9s1.74,3.05-.59,3.31-18.86-1.8-19.37,6.1,16.44,18.95,18.28,20.2,2.11,2.21,1.69,3.27-5.91-.15-10.64-.55-10.27,0-10.18,4.56,9,16.23,35,25l12.33,3.29,9.21-8.93c18.54-20.3,20.66-34.78,18.52-38.83s-7.18-1.7-11.12.93-8.16,6.36-9,5.63-1.11-1.71-.11-3.69,10.51-19.85,6.24-26.52-17.74,3.14-19.9,4-2.53-1.27-2.13-2.61,4.88-16.43,7.17-23.23,1.91-11.83-2.08-13.95-8.54,3.76-11.43,5.54S91,359.28,91,359.28s-1.18-10.35-6.14-28.91-13.14-15.3-13.14-15.3" style="fill:#ebebeb"></path><path d="M110.07,466.2c-3.6-13.65-9.58-38-14.82-58.9s-10-39.78-13.53-53.44C80,347,78.53,341.52,77.53,337.68c-.49-1.9-.87-3.37-1.13-4.4-.13-.49-.22-.87-.29-1.14s-.08-.4-.08-.4,0,.13.12.39l.32,1.13,1.21,4.38c1,3.81,2.52,9.32,4.32,16.15,3.59,13.64,8.39,32.53,13.64,53.42s11.18,45.25,14.7,58.92" style="fill:#e0e0e0"></path><path d="M70.67,372.14a3.6,3.6,0,0,1,.81.44c.51.31,1.23.77,2.12,1.35,1.77,1.16,4.18,2.83,6.81,4.72l6.7,4.86,2,1.46a4.31,4.31,0,0,1,.73.56,3.76,3.76,0,0,1-.81-.43c-.51-.31-1.24-.77-2.12-1.36-1.76-1.18-4.15-2.88-6.77-4.77l-6.74-4.81-2-1.45A4.17,4.17,0,0,1,70.67,372.14Z" style="fill:#e0e0e0"></path><path d="M90.91,384.94c-.09-.06,3.13-5.18,7.2-11.44s7.43-11.27,7.52-11.21-3.12,5.17-7.19,11.43S91,385,90.91,384.94Z" style="fill:#e0e0e0"></path><path d="M97.52,417.37a4.55,4.55,0,0,1,.68-.65l1.94-1.67c1.64-1.42,3.89-3.38,6.3-5.63s4.52-4.37,6-5.91l1.8-1.83a4.63,4.63,0,0,1,.69-.63,4.25,4.25,0,0,1-.58.74c-.39.46-1,1.12-1.7,1.91-1.47,1.6-3.56,3.75-6,6s-4.7,4.19-6.39,5.55c-.84.68-1.53,1.22-2,1.58A4.57,4.57,0,0,1,97.52,417.37Z" style="fill:#e0e0e0"></path><path d="M76.65,409.83a3.45,3.45,0,0,1,.85.21l2.26.71c1.9.63,4.52,1.51,7.4,2.51s5.48,1.93,7.36,2.62l2.22.84a3,3,0,0,1,.79.36,4.61,4.61,0,0,1-.84-.22l-2.26-.71c-1.9-.63-4.52-1.51-7.4-2.51s-5.49-1.93-7.36-2.62l-2.22-.84A4.56,4.56,0,0,1,76.65,409.83Z" style="fill:#e0e0e0"></path><path d="M78.85,439.2a5.35,5.35,0,0,1,1.08.28l2.89.91c2.44.78,5.81,1.89,9.51,3.14s7.06,2.4,9.47,3.25l2.86,1a5.45,5.45,0,0,1,1,.43,7,7,0,0,1-1.08-.29l-2.89-.91c-2.45-.78-5.81-1.89-9.52-3.14s-7-2.39-9.47-3.24l-2.85-1A5.93,5.93,0,0,1,78.85,439.2Z" style="fill:#e0e0e0"></path><path d="M105.11,447.84A6.76,6.76,0,0,1,106,447l2.39-2.21c2-1.86,4.78-4.45,7.75-7.4s5.61-5.67,7.5-7.66l2.23-2.36a7.46,7.46,0,0,1,.86-.83,8.2,8.2,0,0,1-.74.93c-.5.59-1.23,1.43-2.15,2.45-1.83,2-4.43,4.81-7.42,7.76s-5.78,5.51-7.84,7.32c-1,.91-1.88,1.63-2.47,2.12A7.21,7.21,0,0,1,105.11,447.84Z" style="fill:#e0e0e0"></path><rect x="167.52" y="58.14" width="520.9" height="320.72" style="fill:#ebebeb"></rect><rect x="52.15" y="76.63" width="66.8" height="69.63" style="fill:#e0e0e0"></rect><rect x="47.63" y="76.63" width="66.8" height="69.63" style="fill:#fafafa"></rect><path d="M114.45,146.28H47.6V76.61h66.85Zm-66.8,0H114.4V76.65H47.65Z" style="fill:#e0e0e0"></path><rect x="56.61" y="85.99" width="48.84" height="50.91" style="fill:#fff"></rect><path d="M56.61,137.24a8.35,8.35,0,0,1-1.21,1.4c-.78.82-1.88,1.94-3.1,3.15s-2.36,2.29-3.2,3.05A7.44,7.44,0,0,1,47.69,146a8.26,8.26,0,0,1,1.2-1.4c.78-.82,1.88-1.94,3.11-3.15s2.37-2.3,3.2-3.06A7,7,0,0,1,56.61,137.24Z" style="fill:#e0e0e0"></path><path d="M105.45,137.11a9.41,9.41,0,0,1,1.4,1.21c.82.78,1.93,1.88,3.14,3.1s2.29,2.36,3.06,3.2a7.1,7.1,0,0,1,1.17,1.41,8,8,0,0,1-1.39-1.2c-.82-.78-1.94-1.88-3.15-3.11s-2.3-2.37-3.06-3.2A7,7,0,0,1,105.45,137.11Z" style="fill:#e0e0e0"></path><path d="M105.31,86.12a8.7,8.7,0,0,1,1.21-1.4c.78-.82,1.87-1.93,3.1-3.14s2.36-2.29,3.19-3.06a7.84,7.84,0,0,1,1.41-1.17A7.14,7.14,0,0,1,113,78.74c-.78.83-1.88,1.94-3.12,3.16s-2.36,2.29-3.19,3.06A7.46,7.46,0,0,1,105.31,86.12Z" style="fill:#e0e0e0"></path><path d="M56.47,86.25A8.22,8.22,0,0,1,55.07,85c-.82-.78-1.94-1.87-3.15-3.1s-2.29-2.36-3.05-3.19a7.82,7.82,0,0,1-1.18-1.41,7.43,7.43,0,0,1,1.4,1.2c.82.78,1.94,1.88,3.15,3.11s2.3,2.36,3.06,3.19A7.32,7.32,0,0,1,56.47,86.25Z" style="fill:#e0e0e0"></path><path d="M105.31,136.9s0-.09,0-.25,0-.4,0-.71c0-.64,0-1.55,0-2.75,0-2.41,0-5.92,0-10.37,0-8.92-.06-21.62-.1-36.83l.19.19-48.7,0h0l.21-.22c0,18.69,0,36.17,0,50.91l-.18-.18,35.26.09,9.91.05,2.62,0h0l-2.59,0L92,137l-35.38.1h-.19v-.19c0-14.74,0-32.22,0-50.91v-.22h.22l48.7,0h.19V86c0,15.26-.07,28-.1,37,0,4.44,0,7.93,0,10.33,0,1.18,0,2.08,0,2.71,0,.3,0,.53,0,.69A.77.77,0,0,1,105.31,136.9Z" style="fill:#e0e0e0"></path><rect x="72.88" y="103.3" width="16.3" height="16.3" style="fill:#ebebeb"></rect></g><g id="freepik--Floor--inject-2"><path d="M709.67,465.29c0,.14-149.85.26-334.65.26s-334.69-.12-334.69-.26S190.14,465,375,465,709.67,465.15,709.67,465.29Z" style="fill:#263238"></path></g><g id="freepik--Schedule--inject-2"><rect x="140.48" y="83.79" width="516.5" height="328.71" style="fill:#fafafa"></rect><rect x="140.39" y="82.93" width="516.67" height="19.73" style="fill:#5E93FF"></rect><path d="M153.89,92.85a2.24,2.24,0,1,1-2.23-2.23A2.23,2.23,0,0,1,153.89,92.85Z" style="fill:#fff"></path><path d="M160.71,92.85a2.24,2.24,0,1,1-2.24-2.23A2.24,2.24,0,0,1,160.71,92.85Z" style="fill:#fff"></path><path d="M167.52,92.85a2.24,2.24,0,1,1-2.23-2.23A2.23,2.23,0,0,1,167.52,92.85Z" style="fill:#fff"></path><path d="M192.93,141.77l.72-1.63a6.28,6.28,0,0,0,3.72,1.24c1.76,0,2.5-.63,2.5-1.47,0-2.43-6.7-.83-6.7-5,0-1.82,1.45-3.37,4.54-3.37a7.1,7.1,0,0,1,3.76,1l-.66,1.63a6.26,6.26,0,0,0-3.11-.89c-1.74,0-2.45.68-2.45,1.53,0,2.4,6.68.84,6.68,5,0,1.8-1.46,3.35-4.56,3.35A7.28,7.28,0,0,1,192.93,141.77Z" style="fill:#5E93FF"></path><path d="M203.11,138.66a4.35,4.35,0,0,1,4.66-4.4,3.86,3.86,0,0,1,3.67,2l-1.55.9a2.42,2.42,0,0,0-2.14-1.19,2.69,2.69,0,0,0,0,5.38,2.42,2.42,0,0,0,2.14-1.19l1.55.9a3.91,3.91,0,0,1-3.67,2A4.36,4.36,0,0,1,203.11,138.66Z" style="fill:#5E93FF"></path><path d="M221.58,138V143h-2v-4.67c0-1.53-.75-2.28-2-2.28a2.28,2.28,0,0,0-2.4,2.6V143h-2V131h2v4.35a3.81,3.81,0,0,1,2.86-1.09C220.05,134.26,221.58,135.43,221.58,138Z" style="fill:#5E93FF"></path><path d="M232.28,139.3h-6.75a2.6,2.6,0,0,0,2.78,2.06,3.07,3.07,0,0,0,2.34-.93l1.08,1.24a4.34,4.34,0,0,1-3.46,1.4c-2.89,0-4.76-1.85-4.76-4.41a4.28,4.28,0,0,1,4.45-4.4,4.19,4.19,0,0,1,4.35,4.45C232.31,138.87,232.29,139.11,232.28,139.3ZM225.51,138h4.88a2.34,2.34,0,0,0-2.43-2.09A2.37,2.37,0,0,0,225.51,138Z" style="fill:#5E93FF"></path><path d="M242.67,131v12h-1.93v-1.11a3.56,3.56,0,0,1-2.85,1.22,4.41,4.41,0,0,1,0-8.81,3.53,3.53,0,0,1,2.77,1.16V131Zm-2,7.66a2.56,2.56,0,1,0-2.56,2.69A2.51,2.51,0,0,0,240.69,138.66Z" style="fill:#5E93FF"></path><path d="M253.65,134.35V143h-1.92v-1.1a3.52,3.52,0,0,1-2.77,1.21c-2.21,0-3.71-1.21-3.71-3.8v-4.92h2V139c0,1.56.74,2.3,2,2.3s2.35-.87,2.35-2.59v-4.36Z" style="fill:#5E93FF"></path><path d="M256.29,131h2v12h-2Z" style="fill:#5E93FF"></path><path d="M269,139.3h-6.75a2.6,2.6,0,0,0,2.79,2.06,3.09,3.09,0,0,0,2.34-.93l1.08,1.24a4.38,4.38,0,0,1-3.47,1.4c-2.88,0-4.75-1.85-4.75-4.41a4.28,4.28,0,0,1,4.45-4.4,4.19,4.19,0,0,1,4.35,4.45C269,138.87,269,139.11,269,139.3ZM262.24,138h4.88a2.34,2.34,0,0,0-2.43-2.09A2.37,2.37,0,0,0,262.24,138Z" style="fill:#5E93FF"></path><path d="M183.25,144H171.94a2,2,0,0,1-2-2V131.92a2,2,0,0,1,2-2h11.31a2,2,0,0,1,2,2V142A2,2,0,0,1,183.25,144ZM171.94,131a1,1,0,0,0-1,1V142a1,1,0,0,0,1,1h11.31a1,1,0,0,0,1-1V131.92a1,1,0,0,0-1-1Z" style="fill:#5E93FF"></path><rect x="172.33" y="127.35" width="2.27" height="4.24" rx="1.03" style="fill:#5E93FF"></rect><rect x="180.13" y="127.35" width="2.27" height="4.24" rx="1.03" style="fill:#5E93FF"></rect><rect x="174.05" y="134.01" width="2.27" height="2.27" style="fill:#5E93FF"></rect><rect x="178.57" y="134.01" width="2.27" height="2.27" style="fill:#5E93FF"></rect><rect x="174.05" y="138.3" width="2.27" height="2.27" style="fill:#5E93FF"></rect><rect x="178.57" y="138.3" width="2.27" height="2.27" style="fill:#5E93FF"></rect><path d="M441.72,166.4h3.45c2.48,0,4.18,1.5,4.18,3.79s-1.7,3.79-4.18,3.79h-3.45Zm3.36,6.14a2.35,2.35,0,1,0,0-4.7h-1.6v4.7Z" style="fill:#263238"></path><path d="M455.71,170.66V174h-1.58v-.72a1.92,1.92,0,0,1-1.78.81c-1.37,0-2.18-.76-2.18-1.76s.73-1.75,2.51-1.75H454c0-.72-.43-1.15-1.34-1.15A2.83,2.83,0,0,0,451,170l-.61-1.18a4.51,4.51,0,0,1,2.51-.7C454.68,168.07,455.71,168.89,455.71,170.66ZM454,172.14v-.59h-1.16c-.79,0-1,.29-1,.68s.36.7.95.7A1.25,1.25,0,0,0,454,172.14Z" style="fill:#263238"></path><path d="M457,166.4a1,1,0,0,1,1.05-.94,1,1,0,0,1,1.05.91,1.05,1.05,0,0,1-2.1,0Zm.21,1.76h1.69V174h-1.69Z" style="fill:#263238"></path><path d="M460.5,166h1.69v8H460.5Z" style="fill:#263238"></path><path d="M469.55,168.16l-2.64,6.18a2.39,2.39,0,0,1-2.41,1.83,2.57,2.57,0,0,1-1.63-.53l.62-1.2a1.49,1.49,0,0,0,.95.37c.47,0,.73-.21,1-.73l0-.05-2.52-5.87h1.74l1.64,4,1.64-4Z" style="fill:#263238"></path><path d="M475,167.83h-2.43V166.4h6.61v1.43h-2.43V174H475Z" style="fill:#263238"></path><path d="M484.87,170.66V174h-1.58v-.72a1.92,1.92,0,0,1-1.78.81c-1.36,0-2.18-.76-2.18-1.76s.73-1.75,2.51-1.75h1.34c0-.72-.43-1.15-1.34-1.15a2.83,2.83,0,0,0-1.68.54l-.61-1.18a4.51,4.51,0,0,1,2.51-.7C483.84,168.07,484.87,168.89,484.87,170.66Zm-1.69,1.48v-.59H482c-.79,0-1,.29-1,.68s.36.7.95.7A1.25,1.25,0,0,0,483.18,172.14Z" style="fill:#263238"></path><path d="M485.84,173.44l.56-1.21a4,4,0,0,0,2,.56c.78,0,1.07-.2,1.07-.53,0-.95-3.52,0-3.52-2.31,0-1.1,1-1.88,2.69-1.88a4.76,4.76,0,0,1,2.25.51l-.57,1.2a3.36,3.36,0,0,0-1.68-.43c-.75,0-1.08.24-1.08.54,0,1,3.52,0,3.52,2.33,0,1.08-1,1.85-2.75,1.85A4.94,4.94,0,0,1,485.84,173.44Z" style="fill:#263238"></path><path d="M494.66,171.7l-.82.8V174h-1.69v-8h1.69v4.55l2.47-2.34h2l-2.43,2.47,2.65,3.35H496.5Z" style="fill:#263238"></path><path d="M498.55,173.44l.56-1.21a4,4,0,0,0,2,.56c.78,0,1.07-.2,1.07-.53,0-.95-3.52,0-3.52-2.31,0-1.1,1-1.88,2.7-1.88a4.72,4.72,0,0,1,2.24.51l-.56,1.2a3.41,3.41,0,0,0-1.68-.43c-.76,0-1.09.24-1.09.54,0,1,3.52,0,3.52,2.33,0,1.08-1,1.85-2.75,1.85A5,5,0,0,1,498.55,173.44Z" style="fill:#263238"></path><rect x="516.18" y="192.88" width="109.96" height="39.2" rx="6.55" style="fill:#5E93FF"></rect><g style="opacity:0.6000000000000001"><rect x="516.18" y="192.88" width="109.96" height="39.2" rx="6.55" style="fill:#fff"></rect></g><path d="M441.39,207.36c0-2.41,1.26-3.85,3-3.85s3,1.44,3,3.85-1.28,3.86-3,3.86S441.39,209.78,441.39,207.36Zm5.25,0c0-2-.91-3.14-2.23-3.14s-2.23,1.12-2.23,3.14.91,3.14,2.23,3.14S446.64,209.39,446.64,207.36Z" style="fill:#263238"></path><path d="M454.39,209c0,1.35-1.14,2.18-2.95,2.18s-2.92-.83-2.92-2.18a1.89,1.89,0,0,1,1.46-1.86,1.71,1.71,0,0,1-1.19-1.67c0-1.23,1-2,2.65-2s2.68.77,2.68,2a1.72,1.72,0,0,1-1.22,1.67A1.9,1.9,0,0,1,454.39,209Zm-.8,0c0-.93-.81-1.52-2.15-1.52s-2.13.59-2.13,1.52.79,1.53,2.13,1.53S453.59,210,453.59,209Zm-2.15-2.13c1.18,0,1.89-.53,1.89-1.36s-.75-1.37-1.89-1.37-1.87.52-1.87,1.36S450.26,206.9,451.44,206.9Z" style="fill:#263238"></path><path d="M455.48,206a.58.58,0,0,1,.58-.59.58.58,0,0,1,.58.59.59.59,0,0,1-.58.59A.58.58,0,0,1,455.48,206Zm0,4.61a.57.57,0,0,1,.58-.58.58.58,0,0,1,.58.58.59.59,0,0,1-.58.6A.59.59,0,0,1,455.48,210.61Z" style="fill:#263238"></path><path d="M457.77,207.36c0-2.41,1.27-3.85,3-3.85s3,1.44,3,3.85-1.28,3.86-3,3.86S457.77,209.78,457.77,207.36Zm5.25,0c0-2-.91-3.14-2.23-3.14s-2.23,1.12-2.23,3.14.91,3.14,2.23,3.14S463,209.39,463,207.36Z" style="fill:#263238"></path><path d="M464.94,207.36c0-2.41,1.27-3.85,3-3.85s3,1.44,3,3.85-1.28,3.86-3,3.86S464.94,209.78,464.94,207.36Zm5.26,0c0-2-.91-3.14-2.23-3.14s-2.24,1.12-2.24,3.14.92,3.14,2.24,3.14S470.2,209.39,470.2,207.36Z" style="fill:#263238"></path><path d="M632.3,192.86c0,.15-42.87.26-95.74.26s-95.74-.11-95.74-.26,42.86-.26,95.74-.26S632.3,192.72,632.3,192.86Z" style="fill:#e0e0e0"></path><path d="M441.39,246.1c0-2.42,1.26-3.86,3-3.86s3,1.44,3,3.86-1.28,3.86-3,3.86S441.39,248.52,441.39,246.1Zm5.25,0c0-2-.91-3.14-2.23-3.14s-2.23,1.11-2.23,3.14.91,3.14,2.23,3.14S446.64,248.13,446.64,246.1Z" style="fill:#263238"></path><path d="M454,246c0,2.58-1.41,3.93-3.47,3.93a3.37,3.37,0,0,1-1.79-.42l.31-.62a2.65,2.65,0,0,0,1.47.35c1.64,0,2.69-1.05,2.69-3.11,0-.17,0-.39,0-.61a2.43,2.43,0,0,1-2.32,1.3,2.3,2.3,0,0,1-2.56-2.28,2.37,2.37,0,0,1,2.59-2.33C452.94,242.24,454,243.64,454,246Zm-1.07-1.5c0-.84-.7-1.63-2-1.63a1.66,1.66,0,0,0-1.85,1.65c0,1,.74,1.64,1.91,1.64A1.76,1.76,0,0,0,453,244.53Z" style="fill:#263238"></path><path d="M455.17,244.73a.57.57,0,0,1,.57-.58.58.58,0,0,1,.59.58.59.59,0,0,1-.59.6A.58.58,0,0,1,455.17,244.73Zm0,4.62a.57.57,0,0,1,.57-.59.58.58,0,0,1,.59.59.59.59,0,0,1-.59.59A.58.58,0,0,1,455.17,249.35Z" style="fill:#263238"></path><path d="M457.46,246.1c0-2.42,1.26-3.86,3-3.86s3,1.44,3,3.86-1.28,3.86-3,3.86S457.46,248.52,457.46,246.1Zm5.25,0c0-2-.91-3.14-2.23-3.14s-2.23,1.11-2.23,3.14.91,3.14,2.23,3.14S462.71,248.13,462.71,246.1Z" style="fill:#263238"></path><path d="M464.63,246.1c0-2.42,1.27-3.86,3-3.86s3,1.44,3,3.86-1.28,3.86-3,3.86S464.63,248.52,464.63,246.1Zm5.25,0c0-2-.91-3.14-2.23-3.14s-2.23,1.11-2.23,3.14.91,3.14,2.23,3.14S469.88,248.13,469.88,246.1Z" style="fill:#263238"></path><path d="M632.3,231.6c0,.14-42.87.26-95.74.26s-95.74-.12-95.74-.26,42.86-.26,95.74-.26S632.3,231.46,632.3,231.6Z" style="fill:#e0e0e0"></path><path d="M443.49,279.88v7.58h-.78v-6.89h-1.79v-.69Z" style="fill:#263238"></path><path d="M445.3,283.67c0-2.42,1.27-3.86,3-3.86s3,1.44,3,3.86-1.28,3.85-3,3.85S445.3,286.08,445.3,283.67Zm5.25,0c0-2-.91-3.14-2.23-3.14s-2.23,1.11-2.23,3.14.91,3.14,2.23,3.14S450.55,285.69,450.55,283.67Z" style="fill:#263238"></path><path d="M452.48,282.3a.57.57,0,0,1,.58-.58.58.58,0,0,1,.58.58.59.59,0,0,1-.58.6A.59.59,0,0,1,452.48,282.3Zm0,4.62a.58.58,0,0,1,.58-.59.58.58,0,0,1,.58.59.59.59,0,0,1-.58.59A.58.58,0,0,1,452.48,286.92Z" style="fill:#263238"></path><path d="M454.77,283.67c0-2.42,1.27-3.86,3-3.86s3,1.44,3,3.86-1.27,3.85-3,3.85S454.77,286.08,454.77,283.67Zm5.25,0c0-2-.91-3.14-2.23-3.14s-2.23,1.11-2.23,3.14.91,3.14,2.23,3.14S460,285.69,460,283.67Z" style="fill:#263238"></path><path d="M461.94,283.67c0-2.42,1.27-3.86,3-3.86s3,1.44,3,3.86-1.28,3.85-3,3.85S461.94,286.08,461.94,283.67Zm5.26,0c0-2-.91-3.14-2.24-3.14s-2.23,1.11-2.23,3.14.91,3.14,2.23,3.14S467.2,285.69,467.2,283.67Z" style="fill:#263238"></path><path d="M632.3,269.17c0,.14-42.87.26-95.74.26s-95.74-.12-95.74-.26,42.86-.26,95.74-.26S632.3,269,632.3,269.17Z" style="fill:#e0e0e0"></path><path d="M443.49,317.44V325h-.78v-6.89h-1.79v-.7Z" style="fill:#263238"></path><path d="M447.4,317.44V325h-.78v-6.89h-1.79v-.7Z" style="fill:#263238"></path><path d="M449.22,319.87a.57.57,0,0,1,.57-.59.58.58,0,0,1,.59.59.59.59,0,0,1-.59.6A.58.58,0,0,1,449.22,319.87Zm0,4.61a.57.57,0,0,1,.57-.58.58.58,0,0,1,.59.58.59.59,0,0,1-.59.6A.58.58,0,0,1,449.22,324.48Z" style="fill:#263238"></path><path d="M451.51,321.23c0-2.41,1.26-3.85,3-3.85s3,1.44,3,3.85-1.28,3.86-3,3.86S451.51,323.65,451.51,321.23Zm5.25,0c0-2-.91-3.14-2.23-3.14s-2.23,1.12-2.23,3.14.91,3.15,2.23,3.15S456.76,323.26,456.76,321.23Z" style="fill:#263238"></path><path d="M458.68,321.23c0-2.41,1.27-3.85,3-3.85s3,1.44,3,3.85-1.28,3.86-3,3.86S458.68,323.65,458.68,321.23Zm5.25,0c0-2-.91-3.14-2.23-3.14s-2.23,1.12-2.23,3.14.91,3.15,2.23,3.15S463.93,323.26,463.93,321.23Z" style="fill:#263238"></path><path d="M632.3,306.74c0,.14-42.87.26-95.74.26s-95.74-.12-95.74-.26,42.86-.26,95.74-.26S632.3,306.59,632.3,306.74Z" style="fill:#e0e0e0"></path><path d="M443.49,349.63v7.59h-.78v-6.89h-1.79v-.7Z" style="fill:#e0e0e0"></path><path d="M450.48,356.52v.7h-5.32v-.56l3.15-3.08c.85-.85,1-1.36,1-1.88,0-.88-.62-1.42-1.78-1.42a2.56,2.56,0,0,0-2.07.85l-.55-.48a3.42,3.42,0,0,1,2.69-1.08c1.53,0,2.51.78,2.51,2.05a3.13,3.13,0,0,1-1.25,2.37l-2.57,2.53Z" style="fill:#e0e0e0"></path><path d="M451.46,352.06a.58.58,0,0,1,.58-.59.58.58,0,0,1,.58.59.6.6,0,0,1-.58.6A.59.59,0,0,1,451.46,352.06Zm0,4.61a.57.57,0,0,1,.58-.58.58.58,0,0,1,.58.58.59.59,0,0,1-.58.6A.59.59,0,0,1,451.46,356.67Z" style="fill:#e0e0e0"></path><path d="M453.75,353.42c0-2.41,1.27-3.85,3-3.85s3,1.44,3,3.85-1.28,3.86-3,3.86S453.75,355.84,453.75,353.42Zm5.25,0c0-2-.91-3.14-2.23-3.14s-2.23,1.12-2.23,3.14.91,3.15,2.23,3.15S459,355.45,459,353.42Z" style="fill:#e0e0e0"></path><path d="M460.92,353.42c0-2.41,1.27-3.85,3-3.85s3,1.44,3,3.85-1.28,3.86-3,3.86S460.92,355.84,460.92,353.42Zm5.26,0c0-2-.91-3.14-2.23-3.14s-2.24,1.12-2.24,3.14.91,3.15,2.24,3.15S466.18,355.45,466.18,353.42Z" style="fill:#e0e0e0"></path><path d="M632.3,338.93c0,.14-42.87.26-95.74.26s-95.74-.12-95.74-.26,42.86-.26,95.74-.26S632.3,338.78,632.3,338.93Z" style="fill:#e0e0e0"></path><path d="M560.64,214.22v2.62h-.79v-2.62l-3-5h.86l2.6,4.26,2.6-4.26h.8Z" style="fill:#263238"></path><path d="M563.53,214a2.9,2.9,0,1,1,2.91,2.91A2.81,2.81,0,0,1,563.53,214Zm5,0a2.12,2.12,0,1,0-2.11,2.22A2.08,2.08,0,0,0,568.55,214Z" style="fill:#263238"></path><path d="M576.18,211.14v5c0,2-1,2.85-2.85,2.85a4,4,0,0,1-2.66-.88l.39-.58a3.44,3.44,0,0,0,2.25.78c1.44,0,2.1-.66,2.1-2.07v-.73a2.56,2.56,0,0,1-2.22,1.11,2.77,2.77,0,1,1,0-5.53,2.57,2.57,0,0,1,2.25,1.14v-1.1Zm-.75,2.71a2.16,2.16,0,1,0-2.17,2.09A2,2,0,0,0,575.43,213.85Z" style="fill:#263238"></path><path d="M582.64,213.31v3.53h-.74V216a2.14,2.14,0,0,1-2,1c-1.29,0-2.08-.68-2.08-1.66s.56-1.62,2.2-1.62h1.81v-.34c0-1-.56-1.51-1.62-1.51a2.9,2.9,0,0,0-1.89.67l-.35-.57a3.6,3.6,0,0,1,2.32-.77A2,2,0,0,1,582.64,213.31Zm-.77,1.82v-.93h-1.79c-1.11,0-1.46.43-1.46,1s.53,1.07,1.44,1.07A1.83,1.83,0,0,0,581.87,215.13Z" style="fill:#263238"></path><rect x="514.31" y="237.73" width="109.96" height="20.21" rx="6.55" style="fill:#5E93FF"></rect><rect x="516.18" y="269.17" width="109.96" height="60.14" rx="6.55" style="fill:#5E93FF"></rect><path d="M545.1,248.25a3.8,3.8,0,0,1,4-3.84,3.63,3.63,0,0,1,2.76,1.1l-.51.51a3,3,0,0,0-2.23-.9,3.14,3.14,0,1,0,0,6.27,2.94,2.94,0,0,0,2.23-.91l.51.51a3.68,3.68,0,0,1-2.77,1.11A3.8,3.8,0,0,1,545.1,248.25Z" style="fill:#263238"></path><path d="M557.58,248.51V252h-.74v-.88a2.12,2.12,0,0,1-2,.94c-1.29,0-2.08-.67-2.08-1.65s.57-1.61,2.2-1.61h1.8v-.35c0-1-.55-1.5-1.61-1.5a2.92,2.92,0,0,0-1.89.67l-.34-.57a3.57,3.57,0,0,1,2.31-.77A2,2,0,0,1,557.58,248.51Zm-.77,1.82v-.93H555c-1.1,0-1.46.43-1.46,1s.53,1.07,1.44,1.07A1.82,1.82,0,0,0,556.81,250.33Z" style="fill:#263238"></path><path d="M559.66,244h.77v8h-.77Z" style="fill:#263238"></path><path d="M562.57,244h.77v8h-.77Z" style="fill:#263238"></path><path d="M567.18,251l.48-.54a1.93,1.93,0,0,0,1.63.93c.93,0,1.4-.55,1.4-1.67v-4.58h-2.76v-.69h3.55v5.24c0,1.6-.75,2.39-2.2,2.39A2.5,2.5,0,0,1,567.18,251Z" style="fill:#263238"></path><path d="M573.15,249.19a2.89,2.89,0,1,1,2.89,2.9A2.79,2.79,0,0,1,573.15,249.19Zm5,0a2.12,2.12,0,1,0-2.11,2.22A2.07,2.07,0,0,0,578.15,249.19Z" style="fill:#263238"></path><path d="M585.72,248.74V252H585v-3.22a1.58,1.58,0,0,0-1.7-1.81,1.87,1.87,0,0,0-2,2.05v3h-.77v-8h.77v3.33a2.39,2.39,0,0,1,2.13-1A2.17,2.17,0,0,1,585.72,248.74Z" style="fill:#263238"></path><path d="M593,248.74V252h-.76v-3.22a1.59,1.59,0,0,0-1.71-1.81,1.87,1.87,0,0,0-2,2.05v3h-.77v-5.68h.74v1.05a2.39,2.39,0,0,1,2.16-1.09A2.17,2.17,0,0,1,593,248.74Z" style="fill:#263238"></path><path d="M539.44,285.71,537.1,291h-.55l-2.35-5.29h.61l2,4.6,2-4.6Z" style="fill:#263238"></path><path d="M540,285.77a.39.39,0,1,1,.39.38A.38.38,0,0,1,540,285.77Zm.12,1.25h.54v4h-.54Z" style="fill:#263238"></path><path d="M545.74,285.39V291h-.52v-.78a1.73,1.73,0,0,1-1.53.82,2,2,0,0,1,0-4.05,1.75,1.75,0,0,1,1.51.79v-2.39Zm-.53,3.62a1.48,1.48,0,1,0-1.48,1.55A1.46,1.46,0,0,0,545.21,289Z" style="fill:#263238"></path><path d="M550.7,289.18h-3.33a1.47,1.47,0,0,0,1.56,1.38,1.55,1.55,0,0,0,1.22-.52l.3.35a2,2,0,0,1-1.53.65,2,2,0,0,1-2.09-2,1.94,1.94,0,1,1,3.87,0Zm-3.33-.4h2.82a1.39,1.39,0,0,0-1.42-1.33A1.38,1.38,0,0,0,547.37,288.78Z" style="fill:#263238"></path><path d="M551.4,289a2,2,0,1,1,2,2A2,2,0,0,1,551.4,289Zm3.5,0a1.48,1.48,0,1,0-1.48,1.55A1.45,1.45,0,0,0,554.9,289Z" style="fill:#263238"></path><path d="M558.12,289a2,2,0,0,1,2-2,1.75,1.75,0,0,1,1.56.79l-.4.27a1.36,1.36,0,0,0-1.16-.59,1.55,1.55,0,0,0,0,3.1,1.35,1.35,0,0,0,1.16-.58l.4.28a1.77,1.77,0,0,1-1.56.78A2,2,0,0,1,558.12,289Z" style="fill:#263238"></path><path d="M562.31,289a2,2,0,1,1,2,2A2,2,0,0,1,562.31,289Zm3.5,0a1.45,1.45,0,0,0-1.47-1.55,1.55,1.55,0,0,0,0,3.1A1.45,1.45,0,0,0,565.81,289Z" style="fill:#263238"></path><path d="M571.11,288.7V291h-.53v-2.25a1.11,1.11,0,0,0-1.2-1.27,1.31,1.31,0,0,0-1.39,1.44V291h-.54v-4H568v.74a1.65,1.65,0,0,1,1.51-.77A1.52,1.52,0,0,1,571.11,288.7Z" style="fill:#263238"></path><path d="M573.19,286.55V287h1.22v.46H573.2V291h-.54v-3.52H572V287h.71v-.49a1.1,1.1,0,0,1,1.21-1.18,1.24,1.24,0,0,1,.79.25l-.18.4a.89.89,0,0,0-.59-.19C573.43,285.81,573.19,286.06,573.19,286.55Z" style="fill:#263238"></path><path d="M578.53,289.18H575.2a1.47,1.47,0,0,0,1.57,1.38A1.57,1.57,0,0,0,578,290l.3.35a2.1,2.1,0,0,1-3.62-1.38,1.94,1.94,0,1,1,3.87,0C578.54,289.06,578.53,289.12,578.53,289.18Zm-3.33-.4H578a1.42,1.42,0,0,0-2.83,0Z" style="fill:#263238"></path><path d="M581.64,287v.52h-.13a1.29,1.29,0,0,0-1.34,1.47v2h-.54v-4h.52v.78A1.5,1.5,0,0,1,581.64,287Z" style="fill:#263238"></path><path d="M586,289.18h-3.33a1.47,1.47,0,0,0,1.56,1.38,1.55,1.55,0,0,0,1.22-.52l.3.35a2,2,0,0,1-1.53.65,2,2,0,0,1-2.09-2,1.94,1.94,0,1,1,3.87,0Zm-3.33-.4h2.82a1.39,1.39,0,0,0-1.42-1.33A1.38,1.38,0,0,0,582.71,288.78Z" style="fill:#263238"></path><path d="M590.8,288.7V291h-.54v-2.25a1.11,1.11,0,0,0-1.19-1.27,1.31,1.31,0,0,0-1.4,1.44V291h-.53v-4h.51v.74a1.67,1.67,0,0,1,1.51-.77A1.53,1.53,0,0,1,590.8,288.7Z" style="fill:#263238"></path><path d="M591.87,289a2,2,0,0,1,2-2,1.75,1.75,0,0,1,1.56.79l-.4.27a1.36,1.36,0,0,0-1.16-.59,1.55,1.55,0,0,0,0,3.1,1.35,1.35,0,0,0,1.16-.58l.4.28a1.77,1.77,0,0,1-1.56.78A2,2,0,0,1,591.87,289Z" style="fill:#263238"></path><path d="M596.41,285.77a.39.39,0,1,1,.39.38A.38.38,0,0,1,596.41,285.77Zm.12,1.25h.54v4h-.54Z" style="fill:#263238"></path><path d="M602.23,288.7V291h-.54v-2.25a1.11,1.11,0,0,0-1.2-1.27,1.31,1.31,0,0,0-1.39,1.44V291h-.54v-4h.52v.74a1.66,1.66,0,0,1,1.51-.77A1.53,1.53,0,0,1,602.23,288.7Z" style="fill:#263238"></path><path d="M607.38,287v3.5a1.74,1.74,0,0,1-2,2,2.8,2.8,0,0,1-1.85-.61l.27-.41a2.39,2.39,0,0,0,1.57.54c1,0,1.47-.46,1.47-1.44v-.51a1.79,1.79,0,0,1-1.55.77,1.93,1.93,0,1,1,0-3.86,1.8,1.8,0,0,1,1.57.8V287Zm-.52,1.9a1.51,1.51,0,1,0-1.51,1.46A1.42,1.42,0,0,0,606.86,288.92Z" style="fill:#263238"></path><path d="M569.31,296.1l-1.5,4h-.51L566,296.82l-1.25,3.26h-.51l-1.5-4h.52l1.25,3.38,1.27-3.38h.47l1.27,3.38,1.26-3.38Z" style="fill:#263238"></path><path d="M570,294.84a.39.39,0,0,1,.39-.38.38.38,0,0,1,.39.37.39.39,0,0,1-.39.4A.39.39,0,0,1,570,294.84Zm.12,1.26h.53v4h-.53Z" style="fill:#263238"></path><path d="M574.25,299.84a1.27,1.27,0,0,1-.84.28,1.06,1.06,0,0,1-1.17-1.16v-2.41h-.71v-.45h.71v-.87h.54v.87H574v.45h-1.21v2.38a.64.64,0,0,0,.69.73.87.87,0,0,0,.59-.21Z" style="fill:#263238"></path><path d="M578.89,297.77v2.31h-.54v-2.26a1.11,1.11,0,0,0-1.2-1.27,1.31,1.31,0,0,0-1.39,1.44v2.09h-.54v-5.62h.54v2.34a1.67,1.67,0,0,1,1.49-.73A1.53,1.53,0,0,1,578.89,297.77Z" style="fill:#263238"></path><path d="M551.49,307.16a2,2,0,0,1,2.06-2,1.75,1.75,0,0,1,1.56.79l-.41.27a1.34,1.34,0,0,0-1.15-.59,1.56,1.56,0,0,0,0,3.11,1.34,1.34,0,0,0,1.15-.59l.41.27a1.75,1.75,0,0,1-1.56.79A2,2,0,0,1,551.49,307.16Z" style="fill:#263238"></path><path d="M559.74,305.17v4h-.51v-.72a1.59,1.59,0,0,1-1.43.76,1.54,1.54,0,0,1-1.68-1.71v-2.31h.53v2.26a1.12,1.12,0,0,0,1.2,1.28,1.29,1.29,0,0,0,1.35-1.45v-2.09Z" style="fill:#263238"></path><path d="M560.69,308.7l.24-.42a2.42,2.42,0,0,0,1.42.44c.76,0,1.06-.25,1.06-.65,0-1-2.58-.22-2.58-1.79,0-.65.56-1.14,1.58-1.14a2.81,2.81,0,0,1,1.41.37l-.24.43a2,2,0,0,0-1.17-.34c-.72,0-1,.28-1,.66,0,1.08,2.58.27,2.58,1.8,0,.68-.6,1.13-1.64,1.13A2.67,2.67,0,0,1,560.69,308.7Z" style="fill:#263238"></path><path d="M567,308.91a1.27,1.27,0,0,1-.84.28A1.06,1.06,0,0,1,565,308v-2.4h-.71v-.46H565v-.87h.54v.87h1.21v.46h-1.21V308a.64.64,0,0,0,.69.73.92.92,0,0,0,.59-.2Z" style="fill:#263238"></path><path d="M567.47,307.16a2,2,0,1,1,2,2A2,2,0,0,1,567.47,307.16Zm3.5,0a1.48,1.48,0,1,0-1.48,1.56A1.45,1.45,0,0,0,571,307.16Z" style="fill:#263238"></path><path d="M579.18,306.85v2.3h-.54V306.9c0-.84-.42-1.27-1.14-1.27a1.27,1.27,0,0,0-1.33,1.43v2.09h-.54V306.9c0-.84-.42-1.27-1.15-1.27a1.28,1.28,0,0,0-1.33,1.43v2.09h-.54v-4h.51v.73a1.61,1.61,0,0,1,1.46-.76A1.43,1.43,0,0,1,576,306a1.75,1.75,0,0,1,1.57-.84A1.51,1.51,0,0,1,579.18,306.85Z" style="fill:#263238"></path><path d="M584.11,307.33h-3.33a1.49,1.49,0,0,0,1.57,1.39,1.56,1.56,0,0,0,1.22-.53l.3.35a2.1,2.1,0,0,1-3.62-1.38,1.94,1.94,0,1,1,3.87,0S584.11,307.27,584.11,307.33Zm-3.33-.4h2.83a1.42,1.42,0,0,0-2.83,0Z" style="fill:#263238"></path><path d="M587.22,305.14v.52h-.13a1.29,1.29,0,0,0-1.34,1.47v2h-.53v-4h.51V306A1.5,1.5,0,0,1,587.22,305.14Z" style="fill:#263238"></path><path d="M587.66,308.7l.25-.42a2.39,2.39,0,0,0,1.41.44c.76,0,1.07-.25,1.07-.65,0-1-2.58-.22-2.58-1.79,0-.65.56-1.14,1.57-1.14a2.75,2.75,0,0,1,1.41.37l-.23.43a2.08,2.08,0,0,0-1.18-.34c-.72,0-1,.28-1,.66,0,1.08,2.58.27,2.58,1.8,0,.68-.61,1.13-1.65,1.13A2.69,2.69,0,0,1,587.66,308.7Z" style="fill:#263238"></path><path d="M384,141.85a.5.5,0,0,1-.33-.12l-2.86-2.48a1.26,1.26,0,0,1,0-1.9l2.86-2.48a.5.5,0,1,1,.65.75l-2.85,2.48a.27.27,0,0,0,0,.4l2.85,2.48a.5.5,0,0,1-.32.87Z" style="fill:#e0e0e0"></path><path d="M395.23,141.85a.52.52,0,0,1-.38-.17.49.49,0,0,1,0-.7l2.86-2.48a.27.27,0,0,0,0-.4l-2.86-2.48a.49.49,0,0,1,0-.7.51.51,0,0,1,.71,0l2.86,2.48a1.27,1.27,0,0,1,.43,1,1.24,1.24,0,0,1-.44.95l-2.85,2.48A.52.52,0,0,1,395.23,141.85Z" style="fill:#e0e0e0"></path><circle cx="213.77" cy="232.97" r="18.31" style="fill:#5E93FF"></circle><path d="M170.93,170.61l.35-.77a3,3,0,0,0,1.77.59c.84,0,1.19-.3,1.19-.7,0-1.16-3.19-.4-3.19-2.4,0-.87.69-1.61,2.16-1.61a3.4,3.4,0,0,1,1.8.48l-.32.78a2.92,2.92,0,0,0-1.48-.43c-.83,0-1.17.33-1.17.73,0,1.15,3.19.4,3.19,2.38,0,.86-.7,1.6-2.18,1.6A3.43,3.43,0,0,1,170.93,170.61Z" style="fill:#e0e0e0"></path><path d="M180.1,167.08v4.1h-.91v-.52a1.69,1.69,0,0,1-1.33.58,1.62,1.62,0,0,1-1.76-1.82v-2.34h1v2.21c0,.75.35,1.1,1,1.1s1.12-.41,1.12-1.24v-2.07Z" style="fill:#e0e0e0"></path><path d="M185.41,168.83v2.35h-1V169c0-.73-.36-1.08-1-1.08a1.09,1.09,0,0,0-1.15,1.24v2.07h-1v-4.1h.92v.53a1.76,1.76,0,0,1,1.41-.58A1.61,1.61,0,0,1,185.41,168.83Z" style="fill:#e0e0e0"></path><path d="M210.53,171.18v-3.57l-1.77,3h-.44l-1.77-2.91v3.52h-1V165.8h.83l2.13,3.57,2.1-3.57h.83v5.38Z" style="fill:#e0e0e0"></path><path d="M212.49,169.13a2.19,2.19,0,1,1,2.19,2.11A2.07,2.07,0,0,1,212.49,169.13Zm3.41,0a1.22,1.22,0,1,0-1.22,1.28A1.19,1.19,0,0,0,215.9,169.13Z" style="fill:#e0e0e0"></path><path d="M221.83,168.83v2.35h-1V169c0-.73-.36-1.08-1-1.08a1.09,1.09,0,0,0-1.15,1.24v2.07h-1v-4.1h.91v.53a1.79,1.79,0,0,1,1.42-.58A1.6,1.6,0,0,1,221.83,168.83Z" style="fill:#e0e0e0"></path><path d="M243.5,166.65h-1.79v-.85h4.57v.85H244.5v4.53h-1Z" style="fill:#e0e0e0"></path><path d="M250.82,167.08v4.1h-.92v-.52a1.67,1.67,0,0,1-1.32.58,1.63,1.63,0,0,1-1.77-1.82v-2.34h1v2.21c0,.75.36,1.1,1,1.1a1.08,1.08,0,0,0,1.13-1.24v-2.07Z" style="fill:#e0e0e0"></path><path d="M255.92,169.44H252.7a1.23,1.23,0,0,0,1.33,1,1.45,1.45,0,0,0,1.11-.44l.52.59a2.3,2.3,0,0,1-3.92-1.44,2,2,0,0,1,2.12-2.1,2,2,0,0,1,2.08,2.12C255.94,169.23,255.93,169.35,255.92,169.44Zm-3.23-.64H255a1.12,1.12,0,0,0-1.16-1A1.14,1.14,0,0,0,252.69,168.8Z" style="fill:#e0e0e0"></path><path d="M249.28,190.87v6.62h-1.54V192.1h-1.32v-1.23Z" style="fill:#263238"></path><path d="M182.28,234.7a2.28,2.28,0,0,1-2.51,2.2c-1.83,0-3-1.14-3-3.28a3.23,3.23,0,0,1,3.38-3.57,3.58,3.58,0,0,1,1.84.46l-.57,1.12a2.22,2.22,0,0,0-1.24-.33,1.76,1.76,0,0,0-1.86,1.92,2.28,2.28,0,0,1,1.64-.58A2.1,2.1,0,0,1,182.28,234.7Zm-1.49.08a1,1,0,0,0-1.12-1,1,1,0,0,0-1.15,1c0,.56.43,1,1.16,1A1,1,0,0,0,180.79,234.78Z" style="fill:#263238"></path><path d="M179.36,270.62v6.62h-1.53v-5.39h-1.32v-1.23Z" style="fill:#263238"></path><path d="M185.41,275.22c0,1.11-.86,2.13-2.75,2.13a4.57,4.57,0,0,1-2.52-.7l.59-1.18a3.2,3.2,0,0,0,1.89.6c.77,0,1.24-.31,1.24-.85s-.36-.82-1.24-.82h-.7v-1l1.37-1.54h-2.82v-1.23h4.63v1l-1.49,1.71A1.87,1.87,0,0,1,185.41,275.22Z" style="fill:#263238"></path><path d="M217,230.17v1l-2.46,5.63h-1.66l2.37-5.37H213v1.08h-1.37v-2.33Z" style="fill:#fff"></path><path d="M213.56,270.62v6.62H212v-5.39H210.7v-1.23Z" style="fill:#263238"></path><path d="M220.77,275.85h-1.08v1.39H218.2v-1.39h-3.57v-1l3.12-4.2h1.61l-2.89,4h1.78v-1.24h1.44v1.24h1.08Z" style="fill:#263238"></path><path d="M252,234.87c0,1.25-1.11,2-2.8,2s-2.78-.78-2.78-2a1.68,1.68,0,0,1,1-1.56,1.53,1.53,0,0,1-.76-1.36c0-1.17,1-1.9,2.54-1.9s2.57.73,2.57,1.9a1.55,1.55,0,0,1-.78,1.36A1.68,1.68,0,0,1,252,234.87Zm-1.55-.05c0-.58-.48-.94-1.25-.94s-1.23.36-1.23.94.48,1,1.23,1S250.47,235.41,250.47,234.82ZM248.2,232c0,.5.4.82,1,.82s1-.32,1-.82-.41-.83-1-.83S248.2,231.49,248.2,232Z" style="fill:#263238"></path><path d="M248.65,270.62v6.62h-1.53v-5.39H245.8v-1.23Z" style="fill:#263238"></path><path d="M254.81,275.16c0,1.17-.86,2.19-2.75,2.19a4.55,4.55,0,0,1-2.53-.71l.61-1.17a3.17,3.17,0,0,0,1.88.6c.77,0,1.24-.32,1.24-.86s-.34-.86-1.54-.86H250l.35-3.73h4v1.23h-2.76l-.1,1.26h.54C254,273.11,254.81,274,254.81,275.16Z" style="fill:#263238"></path><path d="M286.76,233.34a3.21,3.21,0,0,1-3.37,3.56,3.61,3.61,0,0,1-1.84-.45l.57-1.13a2.11,2.11,0,0,0,1.24.34,1.77,1.77,0,0,0,1.86-1.94,2.25,2.25,0,0,1-1.64.6,2.1,2.1,0,0,1-2.28-2.06,2.28,2.28,0,0,1,2.5-2.21C285.64,230.05,286.76,231.2,286.76,233.34Zm-1.71-1.16c0-.56-.42-1-1.15-1a1,1,0,0,0-1.11,1,1,1,0,0,0,1.13,1A1,1,0,0,0,285.05,232.18Z" style="fill:#263238"></path><path d="M283.11,270.62v6.62h-1.54v-5.39h-1.32v-1.23Z" style="fill:#263238"></path><path d="M289.73,275.15a2.28,2.28,0,0,1-2.51,2.2c-1.82,0-3-1.14-3-3.28a3.22,3.22,0,0,1,3.38-3.56,3.58,3.58,0,0,1,1.84.45l-.57,1.13a2.12,2.12,0,0,0-1.23-.34,1.77,1.77,0,0,0-1.87,1.93,2.24,2.24,0,0,1,1.64-.59A2.1,2.1,0,0,1,289.73,275.15Zm-1.49.08a1,1,0,0,0-1.12-1,1,1,0,0,0-1.15,1c0,.56.43,1,1.17,1A1,1,0,0,0,288.24,275.23Z" style="fill:#263238"></path><path d="M316.87,230.17v6.62h-1.54V231.4H314v-1.23Z" style="fill:#263238"></path><path d="M318,233.48c0-2.19,1.21-3.43,2.84-3.43s2.84,1.24,2.84,3.43-1.21,3.42-2.84,3.42S318,235.66,318,233.48Zm4.13,0c0-1.51-.53-2.13-1.29-2.13s-1.29.62-1.29,2.13.53,2.13,1.29,2.13S322.15,235,322.15,233.48Z" style="fill:#263238"></path><path d="M317.84,270.62v6.62h-1.53v-5.39H315v-1.23Z" style="fill:#263238"></path><path d="M324.18,270.62v1l-2.46,5.63h-1.67l2.38-5.37h-2.2V273h-1.36v-2.33Z" style="fill:#263238"></path><path d="M353.11,230.17v6.62h-1.53V231.4h-1.32v-1.23Z" style="fill:#263238"></path><path d="M356.82,230.17v6.62h-1.53V231.4H354v-1.23Z" style="fill:#263238"></path><path d="M352.3,270.62v6.62h-1.53v-5.39h-1.32v-1.23Z" style="fill:#263238"></path><path d="M359,275.32c0,1.25-1.12,2-2.8,2s-2.78-.78-2.78-2a1.68,1.68,0,0,1,1-1.56,1.53,1.53,0,0,1-.76-1.36c0-1.17,1-1.9,2.54-1.9s2.56.73,2.56,1.9a1.54,1.54,0,0,1-.77,1.36A1.68,1.68,0,0,1,359,275.32Zm-1.55-.05c0-.58-.48-.94-1.25-.94s-1.23.36-1.23.94.47,1,1.23,1S357.45,275.86,357.45,275.27Zm-2.27-2.81c0,.5.4.82,1,.82s1-.32,1-.82-.41-.83-1-.83S355.18,271.94,355.18,272.46Z" style="fill:#263238"></path><path d="M387.07,230.17v6.62h-1.54V231.4h-1.32v-1.23Z" style="fill:#263238"></path><path d="M393.17,235.54v1.25h-5v-1l2.56-2.42c.58-.55.69-.89.69-1.22,0-.52-.36-.82-1.06-.82A1.62,1.62,0,0,0,389,232l-1.12-.72a3.1,3.1,0,0,1,2.63-1.23c1.47,0,2.46.76,2.46,2a2.63,2.63,0,0,1-1.11,2.09l-1.52,1.44Z" style="fill:#263238"></path><path d="M387.07,270.62v6.62h-1.54v-5.39h-1.32v-1.23Z" style="fill:#263238"></path><path d="M393.51,273.79a3.22,3.22,0,0,1-3.38,3.56,3.61,3.61,0,0,1-1.84-.45l.57-1.13a2.13,2.13,0,0,0,1.24.34,1.76,1.76,0,0,0,1.86-1.93,2.27,2.27,0,0,1-1.64.59,2.1,2.1,0,0,1-2.28-2.06,2.29,2.29,0,0,1,2.51-2.21C392.38,270.5,393.51,271.65,393.51,273.79Zm-1.72-1.16c0-.56-.42-1-1.15-1a1,1,0,0,0-1.11,1,1,1,0,0,0,1.13,1A1,1,0,0,0,391.79,272.63Z" style="fill:#263238"></path><path d="M181.76,313.6v1.25h-5v-1l2.56-2.41c.58-.56.69-.9.69-1.23,0-.52-.36-.82-1.06-.82a1.62,1.62,0,0,0-1.37.66l-1.12-.71a3.07,3.07,0,0,1,2.63-1.23c1.47,0,2.46.75,2.46,1.95a2.63,2.63,0,0,1-1.11,2.09l-1.52,1.44Z" style="fill:#263238"></path><path d="M182.37,311.54c0-2.19,1.21-3.42,2.84-3.42s2.84,1.23,2.84,3.42-1.21,3.42-2.84,3.42S182.37,313.72,182.37,311.54Zm4.13,0c0-1.5-.53-2.13-1.29-2.13s-1.29.63-1.29,2.13.53,2.13,1.29,2.13S186.5,313,186.5,311.54Z" style="fill:#263238"></path><path d="M216.72,313.6v1.25h-5v-1l2.55-2.41c.59-.56.69-.9.69-1.23,0-.52-.35-.82-1.05-.82a1.65,1.65,0,0,0-1.38.66l-1.11-.71a3.07,3.07,0,0,1,2.63-1.23c1.47,0,2.46.75,2.46,1.95a2.63,2.63,0,0,1-1.11,2.09l-1.52,1.44Z" style="fill:#263238"></path><path d="M219.91,308.23v6.62h-1.53v-5.39h-1.33v-1.23Z" style="fill:#263238"></path><path d="M251.42,313.6v1.25h-5v-1l2.55-2.42c.59-.55.7-.89.7-1.22,0-.52-.36-.82-1.06-.82a1.65,1.65,0,0,0-1.38.66l-1.11-.72a3.1,3.1,0,0,1,2.63-1.23c1.47,0,2.46.76,2.46,2a2.63,2.63,0,0,1-1.11,2.09l-1.52,1.44Z" style="fill:#263238"></path><path d="M257,313.6v1.25h-5v-1l2.55-2.42c.59-.55.69-.89.69-1.22,0-.52-.35-.82-1.05-.82a1.64,1.64,0,0,0-1.38.66l-1.11-.72a3.08,3.08,0,0,1,2.63-1.23c1.47,0,2.46.76,2.46,2a2.63,2.63,0,0,1-1.11,2.09l-1.52,1.44Z" style="fill:#263238"></path><path d="M286.42,313.6v1.25h-5v-1l2.55-2.42c.59-.55.7-.89.7-1.22,0-.52-.36-.82-1.06-.82a1.65,1.65,0,0,0-1.38.66l-1.11-.72a3.1,3.1,0,0,1,2.63-1.23c1.47,0,2.46.76,2.46,2a2.63,2.63,0,0,1-1.11,2.09l-1.52,1.44Z" style="fill:#263238"></path><path d="M292,312.83c0,1.11-.86,2.13-2.75,2.13a4.49,4.49,0,0,1-2.52-.71l.59-1.17a3.25,3.25,0,0,0,1.9.6c.76,0,1.24-.32,1.24-.85s-.37-.82-1.24-.82h-.7v-1l1.36-1.54H287v-1.23h4.64v1l-1.5,1.7A1.89,1.89,0,0,1,292,312.83Z" style="fill:#263238"></path><path d="M319.26,313.6v1.25h-5v-1l2.55-2.41c.59-.56.69-.9.69-1.23,0-.52-.36-.82-1.06-.82a1.62,1.62,0,0,0-1.37.66l-1.12-.71a3.07,3.07,0,0,1,2.63-1.23c1.48,0,2.46.75,2.46,1.95a2.64,2.64,0,0,1-1.1,2.09l-1.53,1.44Z" style="fill:#263238"></path><path d="M325.86,313.46h-1.08v1.39h-1.49v-1.39h-3.57v-1l3.12-4.2h1.61l-2.89,4h1.78V311h1.44v1.24h1.08Z" style="fill:#263238"></path><path d="M355.51,313.6v1.25h-5v-1l2.56-2.41c.58-.56.69-.9.69-1.23,0-.52-.36-.82-1.06-.82a1.62,1.62,0,0,0-1.37.66l-1.12-.71a3.07,3.07,0,0,1,2.63-1.23c1.48,0,2.46.75,2.46,1.95a2.63,2.63,0,0,1-1.11,2.09l-1.52,1.44Z" style="fill:#263238"></path><path d="M361.14,312.77c0,1.17-.86,2.19-2.75,2.19a4.63,4.63,0,0,1-2.53-.7l.61-1.18a3.17,3.17,0,0,0,1.88.6c.77,0,1.24-.32,1.24-.86s-.34-.86-1.54-.86h-1.69l.34-3.73h4v1.23H358l-.1,1.26h.54C360.37,310.72,361.14,311.6,361.14,312.77Z" style="fill:#263238"></path><path d="M389.46,313.6v1.25h-5v-1l2.56-2.41c.59-.56.69-.9.69-1.23,0-.52-.36-.82-1.06-.82a1.62,1.62,0,0,0-1.37.66l-1.12-.71a3.07,3.07,0,0,1,2.63-1.23c1.48,0,2.46.75,2.46,1.95a2.63,2.63,0,0,1-1.11,2.09l-1.52,1.44Z" style="fill:#263238"></path><path d="M395.54,312.76A2.28,2.28,0,0,1,393,315c-1.82,0-3-1.14-3-3.28a3.22,3.22,0,0,1,3.38-3.56,3.58,3.58,0,0,1,1.84.45l-.56,1.12a2.24,2.24,0,0,0-1.24-.33,1.77,1.77,0,0,0-1.87,1.92,2.28,2.28,0,0,1,1.64-.58A2.1,2.1,0,0,1,395.54,312.76Zm-1.49.08a1,1,0,0,0-1.12-1,1,1,0,0,0-1.15,1c0,.56.43,1,1.17,1A1,1,0,0,0,394.05,312.84Z" style="fill:#263238"></path><path d="M181.76,351.21v1.25h-5v-1l2.56-2.41c.58-.56.69-.9.69-1.22,0-.53-.36-.83-1.06-.83a1.62,1.62,0,0,0-1.37.66l-1.12-.71a3.08,3.08,0,0,1,2.63-1.24c1.47,0,2.46.76,2.46,2a2.63,2.63,0,0,1-1.11,2.09l-1.52,1.44Z" style="fill:#263238"></path><path d="M187.55,345.84v1l-2.46,5.63h-1.66l2.37-5.37h-2.19v1.08h-1.36v-2.33Z" style="fill:#263238"></path><path d="M215.67,351.21v1.25h-5v-1l2.56-2.41c.58-.56.69-.9.69-1.23,0-.52-.36-.82-1.06-.82a1.62,1.62,0,0,0-1.37.66l-1.12-.72a3.1,3.1,0,0,1,2.63-1.23c1.48,0,2.46.76,2.46,2a2.63,2.63,0,0,1-1.11,2.09l-1.52,1.44Z" style="fill:#263238"></path><path d="M221.84,350.54c0,1.25-1.11,2-2.8,2s-2.78-.78-2.78-2a1.68,1.68,0,0,1,1-1.56,1.53,1.53,0,0,1-.76-1.36c0-1.17,1-1.9,2.54-1.9s2.57.73,2.57,1.9a1.55,1.55,0,0,1-.78,1.36A1.68,1.68,0,0,1,221.84,350.54Zm-1.55-.05c0-.58-.48-.94-1.25-.94s-1.23.36-1.23.94.48,1,1.23,1S220.29,351.08,220.29,350.49ZM218,347.68c0,.5.4.82,1,.82s1-.32,1-.82-.41-.83-1-.83S218,347.16,218,347.68Z" style="fill:#263238"></path><path d="M249.89,351.21v1.25h-5v-1l2.56-2.41c.58-.56.69-.9.69-1.22,0-.53-.36-.83-1.06-.83a1.62,1.62,0,0,0-1.37.66l-1.12-.71a3.08,3.08,0,0,1,2.63-1.24c1.48,0,2.46.76,2.46,2a2.63,2.63,0,0,1-1.11,2.09L247,351.21Z" style="fill:#263238"></path><path d="M255.81,349a3.21,3.21,0,0,1-3.38,3.56,3.61,3.61,0,0,1-1.84-.45l.57-1.13a2.13,2.13,0,0,0,1.24.34,1.76,1.76,0,0,0,1.86-1.93,2.27,2.27,0,0,1-1.64.59,2.1,2.1,0,0,1-2.28-2.06,2.29,2.29,0,0,1,2.51-2.21C254.68,345.72,255.81,346.87,255.81,349Zm-1.72-1.16c0-.56-.42-1-1.15-1a1,1,0,0,0-1.11,1,1,1,0,0,0,1.13,1A1,1,0,0,0,254.09,347.85Z" style="fill:#263238"></path><path d="M283.74,350.44c0,1.11-.86,2.13-2.75,2.13a4.57,4.57,0,0,1-2.52-.7l.59-1.18a3.2,3.2,0,0,0,1.89.6c.77,0,1.24-.31,1.24-.85s-.36-.82-1.24-.82h-.7v-1l1.37-1.54H278.8v-1.23h4.63v1l-1.49,1.71A1.87,1.87,0,0,1,283.74,350.44Z" style="fill:#263238"></path><path d="M284.44,349.15c0-2.18,1.21-3.43,2.84-3.43s2.84,1.25,2.84,3.43-1.2,3.42-2.84,3.42S284.44,351.34,284.44,349.15Zm4.14,0c0-1.5-.53-2.13-1.3-2.13s-1.28.63-1.28,2.13.52,2.13,1.28,2.13S288.58,350.65,288.58,349.15Z" style="fill:#263238"></path><path d="M319.2,350.44c0,1.11-.86,2.13-2.74,2.13a4.61,4.61,0,0,1-2.53-.7l.6-1.18a3.2,3.2,0,0,0,1.89.6c.77,0,1.24-.31,1.24-.85s-.37-.82-1.24-.82h-.7v-1l1.36-1.54h-2.81v-1.23h4.63v1l-1.49,1.71A1.87,1.87,0,0,1,319.2,350.44Z" style="fill:#263238"></path><path d="M322.47,345.84v6.62h-1.54v-5.39h-1.32v-1.23Z" style="fill:#263238"></path><path d="M285.52,196.24v1.25h-5v-1l2.55-2.41c.59-.56.69-.9.69-1.22,0-.52-.36-.83-1.06-.83a1.6,1.6,0,0,0-1.37.67l-1.12-.72a3.08,3.08,0,0,1,2.63-1.23c1.48,0,2.46.75,2.46,2a2.67,2.67,0,0,1-1.1,2.09l-1.53,1.43Z" style="fill:#263238"></path><path d="M320.25,195.47c0,1.11-.86,2.14-2.75,2.14a4.58,4.58,0,0,1-2.52-.71l.59-1.18a3.25,3.25,0,0,0,1.9.6c.76,0,1.24-.31,1.24-.85s-.37-.82-1.24-.82h-.7v-1l1.36-1.54h-2.82v-1.23h4.63v1l-1.49,1.71A1.88,1.88,0,0,1,320.25,195.47Z" style="fill:#263238"></path><path d="M355.75,196.1h-1.08v1.39h-1.5V196.1h-3.56v-1l3.12-4.2h1.61l-2.9,4h1.78v-1.24h1.45v1.24h1.08Z" style="fill:#263238"></path><path d="M389.92,195.41c0,1.17-.86,2.2-2.76,2.2a4.6,4.6,0,0,1-2.52-.71l.6-1.18a3.22,3.22,0,0,0,1.89.6c.76,0,1.24-.32,1.24-.86s-.34-.86-1.55-.86h-1.69l.34-3.73h4v1.23h-2.76l-.1,1.26h.53C389.14,193.36,389.92,194.24,389.92,195.41Z" style="fill:#263238"></path><path d="M283.64,165.8l-1.78,5.38H280.8l-1.33-4-1.36,4h-1.06l-1.79-5.38h1l1.34,4.09L279,165.8H280l1.36,4.11,1.38-4.11Z" style="fill:#e0e0e0"></path><path d="M287.9,169.44h-3.22a1.23,1.23,0,0,0,1.33,1,1.45,1.45,0,0,0,1.11-.44l.52.59a2.3,2.3,0,0,1-3.92-1.44,2,2,0,0,1,2.12-2.1,2,2,0,0,1,2.08,2.12C287.92,169.23,287.91,169.35,287.9,169.44Zm-3.23-.64H287a1.12,1.12,0,0,0-1.16-1A1.14,1.14,0,0,0,284.67,168.8Z" style="fill:#e0e0e0"></path><path d="M292.86,165.48v5.7h-.93v-.53a1.7,1.7,0,0,1-1.36.59,2.11,2.11,0,0,1,0-4.21,1.73,1.73,0,0,1,1.33.55v-2.1Zm-.95,3.65a1.22,1.22,0,1,0-1.22,1.28A1.2,1.2,0,0,0,291.91,169.13Z" style="fill:#e0e0e0"></path><path d="M313.83,166.65h-1.78v-.85h4.57v.85h-1.79v4.53h-1Z" style="fill:#e0e0e0"></path><path d="M321.32,168.83v2.35h-1V169c0-.73-.36-1.08-1-1.08a1.09,1.09,0,0,0-1.14,1.24v2.07h-1v-5.7h1v2.07a1.82,1.82,0,0,1,1.37-.52A1.6,1.6,0,0,1,321.32,168.83Z" style="fill:#e0e0e0"></path><path d="M326.52,167.08v4.1h-.92v-.52a1.67,1.67,0,0,1-1.32.58,1.63,1.63,0,0,1-1.77-1.82v-2.34h1v2.21c0,.75.36,1.1,1,1.1a1.08,1.08,0,0,0,1.13-1.24v-2.07Z" style="fill:#e0e0e0"></path><path d="M351.5,166.64v1.64h2.6v.84h-2.6v2.06h-1V165.8h3.93v.84Z" style="fill:#e0e0e0"></path><path d="M357.6,167V168l-.22,0a1.12,1.12,0,0,0-1.19,1.27v2h-1v-4.1h.91v.6A1.63,1.63,0,0,1,357.6,167Z" style="fill:#e0e0e0"></path><path d="M358.29,165.82a.58.58,0,0,1,.61-.57.57.57,0,0,1,.62.55.59.59,0,0,1-.62.6A.58.58,0,0,1,358.29,165.82Zm.13,1.26h1v4.1h-1Z" style="fill:#e0e0e0"></path><path d="M384.1,170.61l.34-.77a3,3,0,0,0,1.78.59c.84,0,1.19-.3,1.19-.7,0-1.16-3.2-.4-3.2-2.4,0-.87.69-1.61,2.17-1.61a3.37,3.37,0,0,1,1.79.48l-.31.78a3,3,0,0,0-1.49-.43c-.83,0-1.16.33-1.16.73,0,1.15,3.19.4,3.19,2.38,0,.86-.7,1.6-2.18,1.6A3.41,3.41,0,0,1,384.1,170.61Z" style="fill:#e0e0e0"></path><path d="M392.73,168.78v2.4h-.91v-.5a1.43,1.43,0,0,1-1.29.56c-.94,0-1.53-.52-1.53-1.23s.46-1.23,1.71-1.23h1.06v-.06c0-.56-.34-.89-1-.89a2,2,0,0,0-1.25.41l-.37-.7a2.84,2.84,0,0,1,1.73-.51C392.05,167,392.73,167.59,392.73,168.78Zm-1,1.12v-.48h-1c-.66,0-.83.25-.83.55s.29.57.78.57A1.05,1.05,0,0,0,391.77,169.9Z" style="fill:#e0e0e0"></path><path d="M396.43,171a1.55,1.55,0,0,1-.92.28,1.27,1.27,0,0,1-1.42-1.39v-2h-.68v-.77h.68v-.94h1v.94h1.1v.77h-1.1v2c0,.4.2.61.57.61a.91.91,0,0,0,.54-.16Z" style="fill:#e0e0e0"></path><path d="M317.3,290.92a2.36,2.36,0,1,1-2.36-2.37A2.36,2.36,0,0,1,317.3,290.92Z" style="fill:#5E93FF"></path><path d="M317.3,324.79a2.36,2.36,0,1,1-2.36-2.36A2.36,2.36,0,0,1,317.3,324.79Z" style="fill:#5E93FF"></path><circle cx="314.94" cy="249.52" r="2.36" style="fill:#5E93FF"></circle><path d="M213.77,327.16a2.36,2.36,0,1,1-2.36-2.37A2.36,2.36,0,0,1,213.77,327.16Z" style="fill:#5E93FF"></path><path d="M248.09,360.7a2.36,2.36,0,1,1-2.36-2.36A2.36,2.36,0,0,1,248.09,360.7Z" style="fill:#5E93FF"></path><path d="M213.77,286.19a2.36,2.36,0,1,1-2.36-2.36A2.36,2.36,0,0,1,213.77,286.19Z" style="fill:#5E93FF"></path><circle cx="281.3" cy="206.65" r="2.36" style="fill:#5E93FF"></circle><circle cx="288.82" cy="206.65" r="2.36" style="fill:#5E93FF"></circle><circle cx="314.94" cy="206.65" r="2.36" style="fill:#5E93FF"></circle><circle cx="322.47" cy="206.65" r="2.36" style="fill:#5E93FF"></circle><g style="opacity:0.6000000000000001"><circle cx="322.47" cy="206.65" r="2.36" style="fill:#fff"></circle></g><circle cx="322.47" cy="249.52" r="2.36" style="fill:#5E93FF"></circle><g style="opacity:0.6000000000000001"><circle cx="322.47" cy="249.52" r="2.36" style="fill:#fff"></circle></g><path d="M324.83,291.15a2.36,2.36,0,1,1-2.36-2.37A2.36,2.36,0,0,1,324.83,291.15Z" style="fill:#5E93FF"></path><g style="opacity:0.6000000000000001"><path d="M324.83,291.15a2.36,2.36,0,1,1-2.36-2.37A2.36,2.36,0,0,1,324.83,291.15Z" style="fill:#fff"></path></g><path d="M325.35,324.79a2.36,2.36,0,1,1-2.36-2.36A2.36,2.36,0,0,1,325.35,324.79Z" style="fill:#5E93FF"></path><path d="M258.52,324.79a2.36,2.36,0,1,1-2.36-2.36A2.36,2.36,0,0,1,258.52,324.79Z" style="fill:#5E93FF"></path><g style="opacity:0.6000000000000001"><path d="M258.52,324.79a2.36,2.36,0,1,1-2.36-2.36A2.36,2.36,0,0,1,258.52,324.79Z" style="fill:#fff"></path></g><g style="opacity:0.6000000000000001"><circle cx="288.82" cy="206.65" r="2.36" style="fill:#fff"></circle></g><path d="M413.94,408.62c-.15,0-.26-68.31-.26-152.56s.11-152.56.26-152.56.26,68.29.26,152.56S414.08,408.62,413.94,408.62Z" style="fill:#e0e0e0"></path><path d="M656.76,412.12c0-2.55-.11-127.18-.28-329.19l.28.32-516.7.09h0l.37-.41c0,116.51,0,227.83,0,329.19l-.35-.38,516.74.38L140,412.5h-.35v-.38c0-101.36,0-212.68,0-329.19v-.41h.41l516.7.1h.29v.31C656.88,284.94,656.77,409.57,656.76,412.12Z" style="fill:#263238"></path><path d="M224.77,260.43a2.37,2.37,0,1,1-2.37-2.37A2.37,2.37,0,0,1,224.77,260.43Z" style="fill:#5E93FF"></path><path d="M216.62,260.43a2.37,2.37,0,1,1-2.37-2.37A2.37,2.37,0,0,1,216.62,260.43Z" style="fill:#5E93FF"></path><path d="M209,260.43a2.37,2.37,0,1,1-2.36-2.37A2.36,2.36,0,0,1,209,260.43Z" style="fill:#5E93FF"></path><g style="opacity:0.6000000000000001"><path d="M208.51,259a2.37,2.37,0,1,1-3.32-.41A2.37,2.37,0,0,1,208.51,259Z" style="fill:#fff"></path></g></g></svg>